<svg xmlns="http://www.w3.org/2000/svg" width="892.614" height="540.807" viewBox="0 0 892.614 540.807">
  <g id="Group_2" data-name="Group 2" transform="translate(-514 -270)">
    <g id="Group_1" data-name="Group 1" transform="translate(514 270.005)">
      <ellipse id="Ellipse_2" data-name="Ellipse 2" cx="444.003" cy="18" rx="444.003" ry="18" transform="translate(0 504.802)" fill="#e6e6e6"/>
      <circle id="Ellipse_3" data-name="Ellipse 3" cx="113" cy="113" r="113" transform="translate(0 71.219)" fill="#f79417"/>
      <path id="Path_1" data-name="Path 1" d="M123.892,524.581H100.747L111.3,167.2Z" fill="#3f3d56"/>
      <path id="Path_2" data-name="Path 2" d="M113.34,234.933l24.847-34.376L113,243.442l-2.723-4.765Z" fill="#3f3d56"/>
      <path id="Path_3" data-name="Path 3" d="M110.617,269.65,85.771,235.274l25.187,42.885,2.723-4.765Z" fill="#3f3d56"/>
      <path id="Path_4" data-name="Path 4" d="M827.505,524.957H804.361l10.551-357.38Z" fill="#3f3d56"/>
      <path id="Path_5" data-name="Path 5" d="M816.954,235.309,841.8,200.933l-25.187,42.885-2.723-4.765Z" fill="#3f3d56"/>
      <path id="Path_6" data-name="Path 6" d="M814.231,270.026,789.385,235.65l25.187,42.885,2.723-4.765Z" fill="#3f3d56"/>
      <circle id="Ellipse_4" data-name="Ellipse 4" cx="210.504" cy="210.504" r="210.504" transform="translate(248.552 103.889)" fill="#3f3d56"/>
      <circle id="Ellipse_5" data-name="Ellipse 5" cx="193.078" cy="193.078" r="193.078" transform="translate(265.978 121.315)" fill="#fff"/>
      <circle id="Ellipse_6" data-name="Ellipse 6" cx="25.79" cy="25.79" r="25.79" transform="translate(432.569 289.3)" fill="#3f3d56"/>
      <rect id="Rectangle_1" data-name="Rectangle 1" width="11.153" height="20.911" transform="translate(452.782 131.074)" fill="#3f3d56"/>
      <rect id="Rectangle_2" data-name="Rectangle 2" width="11.153" height="20.911" transform="translate(452.782 478.196)" fill="#3f3d56"/>
      <rect id="Rectangle_3" data-name="Rectangle 3" width="11.153" height="20.911" transform="translate(295.253 309.514) rotate(90)" fill="#3f3d56"/>
      <rect id="Rectangle_4" data-name="Rectangle 4" width="11.153" height="20.911" transform="translate(642.375 309.514) rotate(90)" fill="#3f3d56"/>
      <path id="Path_7" data-name="Path 7" d="M450.924,326.286l9.531-21.793L579.88,370.635Z" fill="#3f3d56"/>
      <rect id="Rectangle_5" data-name="Rectangle 5" width="54.368" height="62.733" transform="translate(431.871 53.006)" fill="#3f3d56"/>
      <ellipse id="Ellipse_7" data-name="Ellipse 7" cx="62.733" cy="17.426" rx="62.733" ry="17.426" transform="translate(396.323 35.581)" fill="#3f3d56"/>
      <path id="Path_8" data-name="Path 8" d="M730.2,531.283l-3.485,4.879s-16.032,18.82-16.729,9.758,11.849-15.335,11.849-15.335l6.97-4.182Z" transform="translate(-153.693 -179.599)" fill="#ffb8b8"/>
      <path id="Path_9" data-name="Path 9" d="M829.418,547.745l2.918,5.238s10.148,22.544,1.66,19.3-8.788-17.272-8.788-17.272l-.8-8.09Z" transform="translate(-153.693 -179.599)" fill="#ffb8b8"/>
      <circle id="Ellipse_8" data-name="Ellipse 8" cx="21.224" cy="21.224" r="21.224" transform="translate(638.81 232.818)" fill="#2f2e41"/>
      <path id="Path_10" data-name="Path 10" d="M811.751,607.957l2.788,18.123v5.576h16.032v-6.97s.7-12.547-2.091-16.032S811.751,607.957,811.751,607.957Z" transform="translate(-153.693 -179.599)" fill="#ffb8b8"/>
      <path id="Path_11" data-name="Path 11" d="M783.173,607.957l2.788,18.123v5.576h16.032v-6.97s.7-12.547-2.091-16.032S783.173,607.957,783.173,607.957Z" transform="translate(-153.693 -179.599)" fill="#ffb8b8"/>
      <path id="Path_12" data-name="Path 12" d="M793.961,462.384s-6.166,3.25-1.955,10.643S820.929,556.9,820.929,556.9l14.256-4.047-12.572-48.37-7.2-30.4Z" transform="translate(-153.693 -179.599)" fill="#f79417"/>
      <circle id="Ellipse_9" data-name="Ellipse 9" cx="16.032" cy="16.032" r="16.032" transform="translate(641.678 243.993)" fill="#ffb8b8"/>
      <path id="Path_13" data-name="Path 13" d="M818.722,442.063l-2.091,32.76-14.638-10.455s4.879-19.517,3.485-20.911Z" transform="translate(-153.693 -179.599)" fill="#ffb8b8"/>
      <path id="Path_14" data-name="Path 14" d="M818.722,472.036l-15.769-11.677s-7.233-2.961-9.324.525-12.547,55.066-6.97,64.824c0,0,29.972,6.273,36.246,2.788l2.788-18.123s3.485-11.152-2.091-18.123Z" transform="translate(-153.693 -179.599)" fill="#f79417"/>
      <path id="Path_15" data-name="Path 15" d="M797.811,461.58s-5.576-4.182-10.456,2.788-63.43,62.036-63.43,62.036l9.758,11.153,38.337-32.064,24.4-19.517Z" transform="translate(-153.693 -179.599)" fill="#f79417"/>
      <path id="Path_16" data-name="Path 16" d="M823.252,528.147s-34.5-6.622-37.988-1.743l-.7,7.667s-7.667,14.638-3.485,38.337,1.394,38.337,1.394,38.337,18.82-2.091,32.76,0,16.032,0,16.032,0Z" transform="translate(-153.693 -179.599)" fill="#2f2e41"/>
      <path id="Path_17" data-name="Path 17" d="M831.965,628.868l-20.214.7,6.97,52.277s-5.576,22.3.7,23.7a70.715,70.715,0,0,0,13.244,1.394s6.273,6.273,13.244,5.576a39.035,39.035,0,0,0,13.244-4.182s1.394-4.182-3.485-5.576-18.123-5.576-20.911-20.214Z" transform="translate(-153.693 -179.599)" fill="#2f2e41"/>
      <path id="Path_18" data-name="Path 18" d="M803.387,628.868l-20.214.7,6.97,52.277s-5.576,22.3.7,23.7a70.715,70.715,0,0,0,13.244,1.394s6.273,6.273,13.244,5.576a39.035,39.035,0,0,0,13.244-4.182s1.394-4.182-3.485-5.576-18.123-5.576-20.911-20.214Z" transform="translate(-153.693 -179.599)" fill="#2f2e41"/>
      <circle id="Ellipse_10" data-name="Ellipse 10" cx="8.782" cy="8.782" r="8.782" transform="translate(658.676 222.922)" fill="#2f2e41"/>
      <path id="Path_19" data-name="Path 19" d="M832.861,406.546a8.783,8.783,0,0,0-7.867-8.735,8.886,8.886,0,0,1,.914-.048,8.782,8.782,0,0,1,0,17.565,8.877,8.877,0,0,1-.915-.047,8.783,8.783,0,0,0,7.868-8.735Z" transform="translate(-153.693 -179.599)" fill="#2f2e41"/>
      <ellipse id="Ellipse_11" data-name="Ellipse 11" cx="14.637" cy="8.782" rx="14.637" ry="8.782" transform="translate(642.928 240.76)" fill="#2f2e41"/>
      <path id="Path_20" data-name="Path 20" d="M1041.81,221.75a44.677,44.677,0,0,0-87.657-9.419c-.541-.019-1.082-.041-1.628-.041a44.685,44.685,0,0,0-42.864,32.081,31.574,31.574,0,0,0-37.468,9.327h139.362a30.22,30.22,0,0,0,30.286-31.289Q1041.83,222.08,1041.81,221.75Z" transform="translate(-153.693 -179.599)" fill="#e6e6e6"/>
      <circle id="Ellipse_12" data-name="Ellipse 12" cx="12" cy="12" r="12" transform="translate(759.614 112.178)" fill="#e6e6e6"/>
      <circle id="Ellipse_13" data-name="Ellipse 13" cx="9.992" cy="9.992" r="9.992" transform="translate(797.855 85.894)" fill="#e6e6e6"/>
      <circle id="Ellipse_14" data-name="Ellipse 14" cx="12" cy="12" r="12" transform="translate(844.614 138.178)" fill="#e6e6e6"/>
      <circle id="Ellipse_15" data-name="Ellipse 15" cx="12" cy="12" r="12" transform="translate(753.614 193.178)" fill="#e6e6e6"/>
      <circle id="Ellipse_16" data-name="Ellipse 16" cx="12" cy="12" r="12" transform="translate(844.614 262.178)" fill="#e6e6e6"/>
      <path id="Path_21" data-name="Path 21" d="M991.287,685.165c0-.13.02-.257.02-.388a11.982,11.982,0,0,0-16.987-10.9,11.968,11.968,0,0,0-20.832,9.914c-.061,0-.12-.009-.181-.009a12,12,0,1,0,7.334,21.483,11.994,11.994,0,0,0,20.622,1.217,11.99,11.99,0,1,0,10.024-21.312Z" transform="translate(-153.693 -179.599)" fill="#e6e6e6"/>
      <circle id="Ellipse_17" data-name="Ellipse 17" cx="5" cy="5" r="5" transform="translate(862.614 221.178)" fill="#e6e6e6"/>
      <circle id="Ellipse_18" data-name="Ellipse 18" cx="5" cy="5" r="5" transform="translate(830.614 101.178)" fill="#e6e6e6"/>
      <circle id="Ellipse_19" data-name="Ellipse 19" cx="5" cy="5" r="5" transform="translate(813.614 225.178)" fill="#e6e6e6"/>
      <circle id="Ellipse_20" data-name="Ellipse 20" cx="5" cy="5" r="5" transform="translate(817.614 220.178)" fill="#e6e6e6"/>
      <circle id="Ellipse_21" data-name="Ellipse 21" cx="5" cy="5" r="5" transform="translate(820.614 215.178)" fill="#e6e6e6"/>
      <circle id="Ellipse_22" data-name="Ellipse 22" cx="5" cy="5" r="5" transform="translate(808.614 257.178)" fill="#e6e6e6"/>
      <circle id="Ellipse_23" data-name="Ellipse 23" cx="5" cy="5" r="5" transform="translate(882.614 313.178)" fill="#e6e6e6"/>
      <circle id="Ellipse_24" data-name="Ellipse 24" cx="5" cy="5" r="5" transform="translate(775.614 316.178)" fill="#e6e6e6"/>
      <circle id="Ellipse_25" data-name="Ellipse 25" cx="5" cy="5" r="5" transform="translate(781.614 162.178)" fill="#e6e6e6"/>
      <circle id="Ellipse_26" data-name="Ellipse 26" cx="5" cy="5" r="5" transform="translate(804.614 252.178)" fill="#e6e6e6"/>
      <circle id="Ellipse_27" data-name="Ellipse 27" cx="5" cy="5" r="5" transform="translate(799.614 244.178)" fill="#e6e6e6"/>
    </g>
  </g>
</svg>
