<svg xmlns="http://www.w3.org/2000/svg" width="505.466" height="596.945" viewBox="0 0 505.466 596.945">
  <g id="Group_2" data-name="Group 2" transform="translate(0 0)">
    <path id="Path_24" data-name="Path 24" d="M706.733,652.473l5,96s-211.494-201.3-237.842-260.191,23.248-204.588,23.248-204.588L607.182,344.14Z" transform="translate(-347.267 -151.527)" fill="#9f616a"/>
    <path id="Path_25" data-name="Path 25" d="M382.446,243.4,349.9,246.5s-17.049,37.2,35.648,40.3Z" transform="translate(-347.267 -151.527)" fill="#9f616a"/>
    <path id="Path_26" data-name="Path 26" d="M382.446,300.743l-32.548,3.1s-17.049,37.2,35.648,40.3Z" transform="translate(-347.267 -151.527)" fill="#9f616a"/>
    <path id="Path_27" data-name="Path 27" d="M382.446,362.739l-32.548,3.1s-17.049,37.2,35.648,40.3Z" transform="translate(-347.267 -151.527)" fill="#9f616a"/>
    <path id="Path_28" data-name="Path 28" d="M391.746,424.735l-32.548,3.1s-17.049,37.2,35.648,40.3Z" transform="translate(-347.267 -151.527)" fill="#9f616a"/>
    <path id="Path_29" data-name="Path 29" d="M366.6,258.34h2.47V190.685a39.157,39.157,0,0,1,39.157-39.157H551.565a39.157,39.157,0,0,1,39.157,39.157V561.848a39.157,39.157,0,0,1-39.157,39.157H408.227a39.157,39.157,0,0,1-39.157-39.157V306.5H366.6Z" transform="translate(-347.267 -151.527)" fill="#3f3d56"/>
    <path id="Path_30" data-name="Path 30" d="M406.647,161.715h18.71a13.893,13.893,0,0,0,12.863,19.14h82.116a13.893,13.893,0,0,0,12.863-19.14h17.476a29.242,29.242,0,0,1,29.242,29.242V561.576a29.242,29.242,0,0,1-29.242,29.242H406.647A29.242,29.242,0,0,1,377.4,561.576h0V190.957a29.242,29.242,0,0,1,29.242-29.242Z" transform="translate(-347.267 -151.527)" fill="#fff"/>
    <rect id="Rectangle_3" data-name="Rectangle 3" width="61.715" height="14.892" transform="translate(100.537 114.016)" fill="#fc9700"/>
    <rect id="Rectangle_4" data-name="Rectangle 4" width="67.592" height="14.892" transform="translate(97.599 178.009)" fill="#e5e5e5"/>
    <rect id="Rectangle_5" data-name="Rectangle 5" width="150.858" height="14.892" transform="translate(55.965 210)" fill="#e5e5e5"/>
    <rect id="Rectangle_6" data-name="Rectangle 6" width="150.858" height="14.892" transform="translate(55.965 241.99)" fill="#e5e5e5"/>
    <path id="Path_31" data-name="Path 31" d="M852.733,702.473,679.253,504.556l-6.2-127.092-65.1-108.493-18.6-46.5s-43.4,4.65-7.75,92.994l14.724,47.272h0a216.674,216.674,0,0,0-20.149,91.244V562.308c0,25.507,121.55,164.443,135.7,185.666h0Z" transform="translate(-347.267 -151.527)" fill="#9f616a"/>
    <path id="Path_32" data-name="Path 32" d="M247.2,126.636l12.941-6.36-.441-.9-11.957,5.877-18.05-47.323-.934.357Z" opacity="0.2"/>
    <rect id="Rectangle_7" data-name="Rectangle 7" width="1" height="20.43" transform="translate(2.459 95.437) rotate(-69.778)" opacity="0.2"/>
    <rect id="Rectangle_8" data-name="Rectangle 8" width="1" height="20.43" transform="translate(2.459 153.437) rotate(-69.778)" opacity="0.2"/>
    <rect id="Rectangle_9" data-name="Rectangle 9" width="1" height="20.43" transform="translate(2.459 215.437) rotate(-69.778)" opacity="0.2"/>
    <rect id="Rectangle_10" data-name="Rectangle 10" width="1" height="10.353" transform="translate(12.417 277.417) rotate(-64.361)" opacity="0.2"/>
    <circle id="Ellipse_9" data-name="Ellipse 9" cx="43.23" cy="43.23" r="43.23" transform="translate(88.241 298.945)" fill="#fc9700"/>
    <path id="Path_33" data-name="Path 33" d="M127.351,360.424l-12.938-16.637,7.524-5.852,6.126,7.877,20.7-21.848,6.921,6.557Z" fill="#fff"/>
  </g>
</svg>
