<svg id="Group_1" data-name="Group 1" xmlns="http://www.w3.org/2000/svg" width="856.121" height="674" viewBox="0 0 856.121 674">
  <path id="Path_1" data-name="Path 1" d="M593.264,266.136h-3.541v-97A56.139,56.139,0,0,0,533.584,113h-205.5a56.139,56.139,0,0,0-56.139,56.139V701.271a56.139,56.139,0,0,0,56.139,56.139h205.5a56.139,56.139,0,0,0,56.139-56.139V335.18h3.541Z" transform="translate(-171.939 -113)" fill="#3f3d56"/>
  <path id="Path_2" data-name="Path 2" d="M535.426,128.933H508.6a19.918,19.918,0,0,1-18.441,27.441H372.431a19.918,19.918,0,0,1-18.441-27.441H328.935a41.924,41.924,0,0,0-41.924,41.924V702.209a41.924,41.924,0,0,0,41.924,41.924H535.426a41.924,41.924,0,0,0,41.924-41.924V170.857a41.924,41.924,0,0,0-41.924-41.924Zm-4.507,246.5a10.891,10.891,0,0,1-10.859,10.859H467.574a10.891,10.891,0,0,1-10.859-10.859v-2.715a10.891,10.891,0,0,1,10.859-10.859H520.06a10.891,10.891,0,0,1,10.859,10.859Zm5.882-47.961a10.891,10.891,0,0,1-10.859,10.859H337.716a10.891,10.891,0,0,1-10.859-10.859v-2.715a10.891,10.891,0,0,1,10.859-10.859H525.942A10.891,10.891,0,0,1,536.8,324.754Zm0-47.961a10.891,10.891,0,0,1-10.859,10.859H337.716a10.891,10.891,0,0,1-10.859-10.859v-2.715a10.891,10.891,0,0,1,10.859-10.859H525.942A10.891,10.891,0,0,1,536.8,276.792Zm0-47.962A10.891,10.891,0,0,1,525.942,242.4H337.716a10.891,10.891,0,0,1-10.859-10.859v-2.715a10.891,10.891,0,0,1,10.859-10.859H525.942A10.891,10.891,0,0,1,536.8,228.831Z" transform="translate(-171.939 -113)" fill="#fff"/>
  <circle id="Ellipse_1" data-name="Ellipse 1" cx="6.335" cy="6.335" r="6.335" transform="translate(163.514 207.229)" fill="#fff"/>
  <circle id="Ellipse_2" data-name="Ellipse 2" cx="6.335" cy="6.335" r="6.335" transform="translate(184.328 207.229)" fill="#fff"/>
  <circle id="Ellipse_3" data-name="Ellipse 3" cx="6.335" cy="6.335" r="6.335" transform="translate(205.141 207.229)" fill="#fff"/>
  <circle id="Ellipse_4" data-name="Ellipse 4" cx="6.335" cy="6.335" r="6.335" transform="translate(225.955 207.229)" fill="#fff"/>
  <circle id="Ellipse_5" data-name="Ellipse 5" cx="6.335" cy="6.335" r="6.335" transform="translate(293.825 255.191)" fill="#fff"/>
  <circle id="Ellipse_6" data-name="Ellipse 6" cx="6.335" cy="6.335" r="6.335" transform="translate(314.638 255.191)" fill="#fff"/>
  <circle id="Ellipse_7" data-name="Ellipse 7" cx="6.335" cy="6.335" r="6.335" transform="translate(335.452 255.191)" fill="#fff"/>
  <path id="Path_3" data-name="Path 3" d="M538.258,456.6H323.591a19.016,19.016,0,0,0-19.016,19.016v104.59a19.016,19.016,0,0,0,19.016,19.016H538.258a19.016,19.016,0,0,0,19.016-19.016V475.617A19.016,19.016,0,0,0,538.258,456.6ZM318.28,469.573c.424-.077,10.476-1.787,18.8,3.221s11.521,14.691,11.653,15.1l.336,1.044-1.08.192a28.678,28.678,0,0,1-4.658.342,27.738,27.738,0,0,1-14.141-3.564c-8.323-5.007-11.52-14.69-11.652-15.1l-.337-1.044Zm46.6,97.105H326.591a10.529,10.529,0,0,1,0-21.058h38.288a10.529,10.529,0,0,1,0,21.058Zm174.209-1.914A11.52,11.52,0,0,1,527.6,576.25H498.885A11.52,11.52,0,0,1,487.4,564.764v-17.23a11.52,11.52,0,0,1,11.486-11.486H527.6a11.52,11.52,0,0,1,11.486,11.486Z" transform="translate(-171.939 -113)" fill="#fc9700"/>
  <path id="Path_4" data-name="Path 4" d="M508.143,561.213H496.6a3.108,3.108,0,1,0,0,6.217h11.546a3.108,3.108,0,0,0,0-6.217Z" transform="translate(-171.939 -113)" fill="#3f3d56"/>
  <path id="Path_5" data-name="Path 5" d="M529.459,561.213H517.913a3.108,3.108,0,0,0,0,6.217h11.546a3.108,3.108,0,1,0,0-6.217Z" transform="translate(-171.939 -113)" fill="#3f3d56"/>
  <path id="Path_6" data-name="Path 6" d="M508.142,552.438H496.6a3.108,3.108,0,1,0,0,6.217h11.546a3.108,3.108,0,0,0,0-6.217Z" transform="translate(-171.939 -113)" fill="#3f3d56"/>
  <path id="Path_7" data-name="Path 7" d="M529.457,552.438H517.911a3.108,3.108,0,1,0,0,6.217h11.546a3.108,3.108,0,1,0,0-6.217Z" transform="translate(-171.939 -113)" fill="#3f3d56"/>
  <path id="Path_8" data-name="Path 8" d="M508.142,543.841H496.6a3.108,3.108,0,1,0,0,6.217h11.546a3.109,3.109,0,0,0,0-6.217Z" transform="translate(-171.939 -113)" fill="#3f3d56"/>
  <path id="Path_9" data-name="Path 9" d="M529.457,543.841H517.911a3.108,3.108,0,1,0,0,6.217h11.546a3.109,3.109,0,0,0,0-6.217Z" transform="translate(-171.939 -113)" fill="#3f3d56"/>
  <rect id="Rectangle_1" data-name="Rectangle 1" width="28" height="28" transform="translate(487 383)" fill="#e6e6e6"/>
  <path id="Path_10" data-name="Path 10" d="M625.939,513h46v46h-46Zm44,2h-42v42h42Z" transform="translate(-171.939 -113)" fill="#3f3d56"/>
  <rect id="Rectangle_2" data-name="Rectangle 2" width="28" height="28" transform="translate(0 152)" fill="#e6e6e6"/>
  <path id="Path_11" data-name="Path 11" d="M232.939,276h-46V230h46Zm-44-2h42V232h-42Z" transform="translate(-171.939 -113)" fill="#3f3d56"/>
  <path id="Path_12" data-name="Path 12" d="M653.077,661.417h-12.26l-5.832-47.288h18.094Z" fill="#ffb8b8"/>
  <path id="Path_13" data-name="Path 13" d="M632.06,657.914H655.7V672.8H617.173A14.887,14.887,0,0,1,632.06,657.914Z" fill="#2f2e41"/>
  <path id="Path_14" data-name="Path 14" d="M714.077,661.417h-12.26l-5.832-47.288h18.094Z" fill="#ffb8b8"/>
  <path id="Path_15" data-name="Path 15" d="M693.06,657.914H716.7V672.8H678.173a14.887,14.887,0,0,1,14.887-14.887Z" fill="#2f2e41"/>
  <path id="Path_16" data-name="Path 16" d="M763.515,605.3a10.743,10.743,0,0,1,4.511-15.843L809.7,474.593l20.507,11.191L782.624,595.556a10.8,10.8,0,0,1-19.109,9.748Z" transform="translate(-171.939 -113)" fill="#ffb8b8"/>
  <path id="Path_17" data-name="Path 17" d="M879.754,626.887a10.743,10.743,0,0,1-2.893-16.217L863.95,489.161l23.338,1.066,5.365,119.521a10.8,10.8,0,0,1-12.9,17.139Z" transform="translate(-171.939 -113)" fill="#ffb8b8"/>
  <circle id="Ellipse_8" data-name="Ellipse 8" cx="24.561" cy="24.561" r="24.561" transform="translate(646.023 291.195)" fill="#ffb8b8"/>
  <path id="Path_18" data-name="Path 18" d="M879.6,599.252H805.55l.089-.576c.133-.861,13.2-86.439,3.562-114.436a11.813,11.813,0,0,1,6.069-14.583h0c13.772-6.485,40.208-14.471,62.52,4.909a28.235,28.235,0,0,1,9.459,23.4Z" transform="translate(-171.939 -113)" fill="#ccc"/>
  <path id="Path_19" data-name="Path 19" d="M819.772,524.884l-33.337-6.763,15.626-37.03a14,14,0,1,1,27.106,7Z" transform="translate(-171.939 -113)" fill="#ccc"/>
  <path id="Path_20" data-name="Path 20" d="M862.468,537.442l-2-45.941c-1.52-8.636,3.424-16.8,11.027-18.135s15.032,4.66,16.558,13.36l7.533,42.928Z" transform="translate(-171.939 -113)" fill="#ccc"/>
  <path id="Path_21" data-name="Path 21" d="M877.133,593.752c11.914,45.377,13.214,103.069,10,166l-16-2-29-120-16,122-18-1c-5.377-66.03-10.613-122.715-2-160Z" transform="translate(-171.939 -113)" fill="#2f2e41"/>
  <path id="Path_22" data-name="Path 22" d="M858.706,447.738c-4.582,4.881-13.091,2.261-13.688-4.407a8.064,8.064,0,0,1,.01-1.556c.308-2.954,2.015-5.635,1.606-8.754a4.59,4.59,0,0,0-.84-2.149c-3.651-4.889-12.222,2.187-15.668-2.239-2.113-2.714.371-6.987-1.251-10.021-2.14-4-8.479-2.029-12.454-4.221-4.423-2.439-4.158-9.225-1.247-13.353,3.551-5.034,9.776-7.72,15.923-8.107s12.253,1.275,17.992,3.511c6.521,2.541,12.988,6.053,17,11.788,4.88,6.973,5.35,16.348,2.909,24.5C867.515,437.693,862.448,443.752,858.706,447.738Z" transform="translate(-171.939 -113)" fill="#2f2e41"/>
  <path id="Path_23" data-name="Path 23" d="M1027.06,787h-381a1,1,0,0,1,0-2h381a1,1,0,0,1,0,2Z" transform="translate(-171.939 -113)" fill="#3f3d56"/>
</svg>
